<svg id="Layer_1" data-name="Layer 1" xmlns="http://www.w3.org/2000/svg" viewBox="0 0 100 100"><defs><style>.cls-1{fill:#4d4d4d;}.cls-2{fill:#fff;}.cls-3{fill:none;stroke:#fff;stroke-miterlimit:10;}</style></defs><title>Artboard 1</title><rect class="cls-1" x="9" y="9" width="81" height="81" rx="12" ry="12"/><path class="cls-2" d="M27,67.5A17.5,17.5,0,1,1,44.5,50,17.52,17.52,0,0,1,27,67.5Z"/><path class="cls-1" d="M27,33A17,17,0,1,1,10,50,17,17,0,0,1,27,33m0-1A18,18,0,1,0,45,50,18,18,0,0,0,27,32Z"/><path class="cls-2" d="M72,67.5A17.5,17.5,0,1,1,89.5,50,17.52,17.52,0,0,1,72,67.5Z"/><path class="cls-1" d="M72,33A17,17,0,1,1,55,50,17,17,0,0,1,72,33m0-1A18,18,0,1,0,90,50,18,18,0,0,0,72,32Z"/><line class="cls-3" x1="43.5" y1="49.5" x2="55.5" y2="49.5"/></svg>